<svg width="100" height="63" fill="none" xmlns="http://www.w3.org/2000/svg"><path fill-rule="evenodd" clip-rule="evenodd" d="M86.377.307c3.37 0 6.609 1.244 9.119 3.504a13.646 13.646 0 014.502 10.123c0 3.64-1.417 7.063-3.99 9.635a13.533 13.533 0 01-9.634 3.994h-2.137v28.125a6.236 6.236 0 01-6.23 6.229h-.621a6.236 6.236 0 01-6.23-6.23v-2.665a2.91 2.91 0 011.66-2.625c.465-.22.765-.691.765-1.205 0-.51-.3-.98-.763-1.199a2.91 2.91 0 01-1.66-2.625c0-1.12.65-2.15 1.658-2.625.464-.218.765-.692.765-1.204s-.3-.985-.765-1.205a2.91 2.91 0 01-1.658-2.624v-.244a2.91 2.91 0 011.66-2.626c.464-.219.764-.691.764-1.204 0-.51-.3-.982-.764-1.2a2.91 2.91 0 01-1.66-2.626v-2.247H47.334v14.455a3.94 3.94 0 01-3.935 3.936h-.345a3.941 3.941 0 01-3.935-3.936v-1.475a2.1 2.1 0 011.199-1.895.246.246 0 000-.447 2.103 2.103 0 01-1.2-1.895c0-.808.47-1.552 1.196-1.895a.25.25 0 00.146-.224.25.25 0 00-.144-.225 2.101 2.101 0 01-1.197-1.894v-.136a2.1 2.1 0 011.199-1.895.245.245 0 00.142-.225.249.249 0 00-.142-.222 2.102 2.102 0 01-1.2-1.896v-.13h-.505a4.535 4.535 0 01-4.529-4.533v-3.17h-1.126v1.105c0 .604-.49 1.094-1.095 1.094h-8.706a4.38 4.38 0 01-4.015-2.629l-1.92-4.402H1.094a1.094 1.094 0 110-2.188h16.128l1.92-4.401a4.38 4.38 0 014.014-2.629h8.706c.605 0 1.095.49 1.095 1.095v.65h1.126V4.84c0-2.5 2.033-4.533 4.53-4.533h47.764zm-65.23 18.249a2.192 2.192 0 002.01 1.315h7.612v-.758a1.058 1.058 0 01-.07-.346V8.649c0-.123.032-.237.07-.347V8h-7.612c-.871 0-1.66.517-2.01 1.315l-2.015 4.62 2.016 4.622zm11.81-.884v-7.93h1.127v7.93h-1.126zm10.44 26.095a1.75 1.75 0 001.749-1.75V27.565h-3.84v.132c.792.315 1.34 1.18 1.34 2.116 0 .94-.548 1.805-1.398 2.205l.058.05c.792.316 1.34 1.182 1.34 2.12 0 .876-.48 1.69-1.236 2.119a2.445 2.445 0 011.237 2.117c0 .94-.55 1.805-1.4 2.205l.059 1.39a1.75 1.75 0 001.747 1.749h.345zm38.653 11.92a4.046 4.046 0 01-4.041 4.042h-.622a4.046 4.046 0 01-4.041-4.041v-2.666c0-.276.158-.53.403-.645a3.533 3.533 0 002.02-3.184 3.528 3.528 0 00-2.02-3.178.713.713 0 01-.403-.647c0-.277.157-.53.402-.646a3.535 3.535 0 002.02-3.183 3.534 3.534 0 00-2.02-3.183.711.711 0 01-.402-.646v-.244c0-.277.158-.53.403-.646a3.533 3.533 0 002.02-3.183 3.53 3.53 0 00-2.02-3.18.713.713 0 01-.403-.645v-2.246h8.704v28.122zm4.326-30.311c3.053 0 5.925-1.192 8.087-3.354a11.353 11.353 0 003.348-8.088c0-3.233-1.379-6.33-3.782-8.498a11.413 11.413 0 00-7.653-2.943H38.611a2.346 2.346 0 00-2.34 2.346V23.03a2.345 2.345 0 002.34 2.345h47.764z" fill="#141518"/></svg>