<svg width="80" height="80" fill="none" xmlns="http://www.w3.org/2000/svg"><path fill-rule="evenodd" clip-rule="evenodd" d="M40 80c22.091 0 40-17.909 40-40S62.091 0 40 0 0 17.909 0 40s17.909 40 40 40z" fill="#fff"/><path d="M24.761 44.777a2.601 2.601 0 010-3.677 2.57 2.57 0 011.832-.764 2.57 2.57 0 011.831.764l8.991 9.026V22.603A2.599 2.599 0 0140.008 20a2.599 2.599 0 012.593 2.603v27.523l8.975-9.026a2.577 2.577 0 013.663 0 2.601 2.601 0 010 3.677L41.832 58.236A2.588 2.588 0 0140 59a2.55 2.55 0 01-1.831-.764L24.76 44.776z" fill="#000"/></svg>