<svg width="59" height="60" fill="none" xmlns="http://www.w3.org/2000/svg"><path fill-rule="evenodd" clip-rule="evenodd" d="M58.47 27.53c.236.117.354.411.354.646 0 .295-.118.53-.353.589l-5.412 3 5.412 3c.235.117.353.353.353.647 0 .294-.118.53-.353.647l-5.412 3 5.412 3c.235.117.353.353.353.647 0 .294-.118.53-.353.647l-28.706 16c-.118.059-.236.118-.353.118-.118 0-.235-.06-.353-.118l-28.706-16C.118 43.235 0 42.941 0 42.706c0-.235.118-.53.353-.588l5.412-3-5.412-3C.118 36 0 35.765 0 35.47c0-.294.118-.53.353-.647l5.412-3-5.412-3C.118 28.706 0 28.412 0 28.175c0-.235.118-.47.353-.588l5.412-3-5.412-3C.118 21.471 0 21.235 0 20.941c0-.294.118-.53.353-.647l4.882-2.706-4.882-2.706C.118 14.765 0 14.53 0 14.235c0-.294.176-.53.412-.706L29.118.59a.983.983 0 01.588 0l28.706 12.94a.723.723 0 01.412.648c0 .235-.118.529-.353.646l-4.883 2.706 4.883 2.706c.235.118.353.353.353.647 0 .294-.118.53-.353.647l-5.412 3 5.412 3zm-1.94-13.177L29.411 2.118 2.294 14.294l27.118 15.118 27.117-15.059zM6.705 18.412l22.353 12.47c.117.06.235.118.353.118.117 0 .235-.059.353-.118l22.353-12.47 4.53 2.53-27.236 15.176L2.176 20.94l4.53-2.53zm49.941 24.294L51.765 40c-.023-.023-.045-.036-.064-.048-.032-.02-.054-.033-.054-.07L29.765 52.06c-.118.059-.236.117-.353.117-.118 0-.235-.058-.353-.117L7.176 39.882a.347.347 0 00-.048.065c-.019.03-.033.053-.07.053l-4.882 2.706 27.236 15.176 27.235-15.176zm-4.882-10l4.882 2.706-27.235 15.176L2.176 35.471l4.883-2.706c.036 0 .05-.023.07-.054a.322.322 0 01.047-.064L29.06 44.824c.117.058.235.117.353.117.117 0 .235-.059.353-.117l21.882-12.177s.059.059.118.059zm-49.589-4.53l27.236 15.177 27.235-15.177-4.882-2.705-.118-.118-21.882 12.176c-.118.06-.236.118-.353.118-.118 0-.235-.059-.353-.118L7.176 25.353c-.022.022-.036.045-.048.064-.019.031-.033.054-.07.054l-4.882 2.706z" fill="#000"/></svg>