<svg width="55" height="73" fill="none" xmlns="http://www.w3.org/2000/svg"><path fill-rule="evenodd" clip-rule="evenodd" d="M53.162 4.902H35.115V1.164C35.115.521 34.594 0 33.951 0H20.375c-.643 0-1.165.521-1.165 1.165v3.738H1.165C.52 4.903 0 5.424 0 6.068v64.967c0 .643.521 1.164 1.165 1.164h51.997c.643 0 1.164-.521 1.164-1.164V6.067c0-.643-.521-1.165-1.164-1.165zM21.54 2.33h11.247v7.475H21.54V2.33zM2.33 69.869h49.669V7.231H35.115v3.738c0 .644-.521 1.165-1.165 1.165H20.376a1.165 1.165 0 01-1.165-1.165V7.231H2.33v62.638z" fill="#141518"/><path d="M15.648 22.163a1.165 1.165 0 100 2.33h23.03a1.165 1.165 0 100-2.33h-23.03zm23.031 15.223H15.648a1.165 1.165 0 100 2.33h23.03a1.165 1.165 0 100-2.33zm0 15.223H15.648a1.165 1.165 0 100 2.33h23.03a1.165 1.165 0 100-2.33z" fill="#141518"/></svg>