<svg width="60" height="60" fill="none" xmlns="http://www.w3.org/2000/svg"><path fill-rule="evenodd" clip-rule="evenodd" d="M.426 30.028C.426 13.617 13.746.296 30.157.296A29.63 29.63 0 0142.965 3.19c.597.322.537.705.31 1.232l-9.385 18.99 8.697-1.21a.79.79 0 01.799 1.163L24.488 57.597c1.832.376 3.724.584 5.67.584 15.557 0 28.152-12.594 28.152-28.152 0-9.933-5.138-18.656-12.9-23.668-.877-.534-.026-1.849.856-1.327 8.197 5.294 13.623 14.517 13.623 24.995 0 16.41-13.321 29.73-29.732 29.73a29.81 29.81 0 01-6.987-.825c-.679-.192-.63-.716-.54-1.178l6.1-25.576-9.63 1.34a.79.79 0 01-.879-.958l6.88-30.225C11.961 4.716 2.006 16.198 2.006 30.028c0 11.995 7.493 22.226 18.049 26.286.983.377.416 1.851-.566 1.474C8.337 53.498.426 42.68.426 30.028zm41.15-25.73a28.034 28.034 0 00-11.419-2.423c-1.144 0-2.27.075-3.378.208l-6.764 29.715 9.642-1.341a.79.79 0 01.877.965l-5.02 21.051 15.728-28.49-8.611 1.198a.79.79 0 01-.817-1.131l9.762-19.753z" fill="#000"/></svg>