<svg width="110" height="58" fill="none" xmlns="http://www.w3.org/2000/svg"><path fill-rule="evenodd" clip-rule="evenodd" d="M30.972 35.469c0-8.86 7.208-16.07 16.069-16.07 8.86 0 16.07 7.21 16.068 16.07 0 8.86-7.209 16.07-16.068 16.07-8.86 0-16.07-7.21-16.07-16.07zm2.44 0c0 7.514 6.114 13.628 13.629 13.628s13.627-6.113 13.627-13.628S54.555 21.84 47.04 21.84s-13.628 6.114-13.628 13.628z" fill="#141518"/><path fill-rule="evenodd" clip-rule="evenodd" d="M72.39 50.026h35.903c.674 0 1.22.546 1.22 1.22v5.044c0 .674-.55 1.22-1.224 1.22a1.22 1.22 0 01-1.22-1.22v-3.823h-34.68v3.42a1.22 1.22 0 01-1.221 1.22H22.909a1.22 1.22 0 01-1.22-1.22v-.93l-3.49-3.239c-.33.21-.673.291-1.06.291-.156 0-.318-.012-.488-.033l-.016-.002c-.15-.018-.328-.04-.554-.04-.7 0-1.386-.17-1.982-.492-1.167-.63-1.804-1.65-2.32-2.661a33.858 33.858 0 01-3.202-9.54c-.13-.734-.234-1.474-.338-2.213l-.002-.014c-.133-.959-.27-1.938-.454-2.858-.687-3.412-2.204-6.763-3.673-10.005l-.001-.003c-1.507-3.327-3.058-6.75-3.874-10.45C-.44 10.64.218 3.628 3.832 1.685c3.44-1.848 9.153-.297 11.538 3.134 1.308 1.882 1.726 4.044 1.964 5.91.514 4.07.334 8.152.16 12.1v.005l-.009.2c-.05 1.148-.101 2.294-.132 3.438-.123 4.5.013 9.712 1.96 14.25.116.27.238.539.36.807.028.06.05.104.073.148l.008.016.016.03 1.92-1.847V35.47c0-13.978 11.372-25.35 25.35-25.35a25.387 25.387 0 0120.014 9.802l.11-.08a2.406 2.406 0 012.023-.382 2.484 2.484 0 011.623 1.366c.174.377.495.765.88 1.068.442.345.963.63 1.513.932l.025.013c.523.286 1.063.582 1.585.953 1.585 1.128 2.42 2.709 2.233 4.229-.086.715-.378 1.307-.637 1.83l-.003.006c-.081.164-.163.328-.235.495a4.583 4.583 0 00-.214 2.902 2.717 2.717 0 01-2.599 3.378l-.967.015v13.38zm-.345-25.052c-.618-.339-1.256-.689-1.86-1.16-.69-.541-1.255-1.238-1.588-1.964l-1.282.908c1.255 1.89 3.56 6.123 3.328 11.47l2.681-.04a.265.265 0 00.215-.106.272.272 0 00.05-.241c-.373-1.5-.252-3.082.342-4.459.076-.177.161-.351.246-.525l.041-.084c.19-.383.37-.746.407-1.05.089-.727-.605-1.502-1.225-1.944-.404-.285-.858-.535-1.342-.798l-.013-.007zM13.953 47.67a31.393 31.393 0 01-2.971-8.854c-.118-.669-.213-1.34-.32-2.089l-.02-.145-.005-.034c-.122-.89-.261-1.895-.46-2.875-.74-3.683-2.316-7.165-3.85-10.548l-.001-.003c-1.448-3.195-2.945-6.5-3.706-9.952-.6-2.715.259-8.202 2.369-9.335 2.335-1.255 6.718-.01 8.377 2.377 1.008 1.45 1.348 3.252 1.547 4.826.49 3.862.314 7.836.145 11.684v.008a264.51 264.51 0 00-.143 3.675c-.13 4.766.025 10.307 2.158 15.282.098.227.2.452.308.694l.086.19a6.933 6.933 0 00.467.866l.02.035-1.815 1.745a3.199 3.199 0 00-.976 2.322c.007.705.261 1.383.693 1.933a1.822 1.822 0 01-.595-.178c-.61-.328-.98-.982-1.308-1.624zm10.179 6.754v.241H69.95V36.68l-.617.008h-.018a1.22 1.22 0 01-1.211-1.372c.848-6.782-3.397-12.01-3.44-12.062a1.228 1.228 0 01-.27-.933 1.23 1.23 0 01.495-.836l.189-.136a22.946 22.946 0 00-18.035-8.79c-12.633 0-22.91 10.277-22.91 22.909v4.927c0 .332-.135.65-.375.88l-5.928 5.7a.739.739 0 00.009 1.076l5.904 5.48c.247.23.389.554.389.893z" fill="#141518"/></svg>