<svg width="76" height="65" fill="none" xmlns="http://www.w3.org/2000/svg"><path fill-rule="evenodd" clip-rule="evenodd" d="M0 31.992C0 14.467 16.999.21 37.895.21 58.79.21 75.79 14.468 75.79 31.993c0 17.525-16.998 31.783-37.894 31.783-7.228 0-14.23-1.706-20.297-4.94l-7.36 4.417a3.643 3.643 0 01-1.895.538c-1.312 0-2.54-.728-3.203-1.9-.65-1.147-.626-2.518.065-3.67l3.55-5.915C3.1 46.606 0 39.428 0 31.992zM18.163 56.36c5.847 3.252 12.67 4.97 19.732 4.97 19.547 0 35.45-13.16 35.45-29.338 0-16.177-15.902-29.338-35.45-29.338-19.548 0-35.45 13.162-35.45 29.338 0 7.062 3.088 13.89 8.698 19.23l.709.675-4.55 7.582c-.305.508-.187.937-.035 1.206.341.603 1.083.85 1.713.471l8.566-5.14.617.344z" fill="#141518"/><path fill-rule="evenodd" clip-rule="evenodd" d="M31.783 31.889a6.12 6.12 0 016.112-6.113 6.12 6.12 0 016.113 6.113A6.12 6.12 0 0137.895 38a6.119 6.119 0 01-6.112-6.112zm2.444 0a3.671 3.671 0 003.668 3.667 3.672 3.672 0 003.668-3.667 3.672 3.672 0 00-3.668-3.668 3.672 3.672 0 00-3.668 3.668zm-19.558 0a6.12 6.12 0 016.11-6.113 6.12 6.12 0 016.114 6.113A6.12 6.12 0 0120.78 38a6.119 6.119 0 01-6.111-6.112zm2.444 0a3.671 3.671 0 003.667 3.667 3.672 3.672 0 003.668-3.667 3.673 3.673 0 00-3.668-3.668 3.671 3.671 0 00-3.667 3.668zm31.785 0a6.12 6.12 0 016.112-6.113 6.12 6.12 0 016.112 6.113A6.119 6.119 0 0155.01 38a6.119 6.119 0 01-6.111-6.112zm2.445 0a3.671 3.671 0 003.667 3.667 3.671 3.671 0 003.667-3.667 3.672 3.672 0 00-3.667-3.668 3.671 3.671 0 00-3.667 3.668z" fill="#141518"/></svg>