<svg width="56" height="60" fill="none" xmlns="http://www.w3.org/2000/svg"><path fill-rule="evenodd" clip-rule="evenodd" d="M9.502 4.372L21.711.208H34.71l11.909 4.147c.23.03.435.163.556.361l.005.007v.003l8.539 13.614c.299.29.31.768.024 1.072L28.79 59.49a.765.765 0 01-1.27 0L.524 19.317a.765.765 0 01.014-.994L8.892 4.878a.765.765 0 01.203-.3l.008-.008a.769.769 0 01.254-.158h.003a.765.765 0 01.142-.04zM34.45 1.739H21.965l-9.958 3.394 9.96 3.397h12.14a.766.766 0 01.246 0h.1L44.2 5.135l-9.75-3.396zM9.963 6.053l10.902 3.718-5.77 16.726-12.918-7.915 7.786-12.53v.001zm44.14 12.594l-7.897-12.59-10.963 3.818 5.76 16.692 13.1-7.92zM22.385 10.06h11.304l5.805 16.823H16.581l5.804-16.823zM14.89 28.168L3.716 21.322l21.005 31.26-9.83-24.413zm37.705-6.822L41.312 28.17 31.53 52.671l21.064-31.324h.001zm-13.029 7.067H16.639l11.513 28.593 11.415-28.593z" fill="#000"/></svg>