<svg width="57" height="64" fill="none" xmlns="http://www.w3.org/2000/svg"><path fill-rule="evenodd" clip-rule="evenodd" d="M.302 1.374c0-.447.362-.808.808-.808h54.67c.447 0 .808.361.808.808v44.57c0 .28-.145.541-.385.688l-27.76 17.046a.808.808 0 01-.856-.005L.678 46.627a.808.808 0 01-.376-.683V1.374zm54.671.808H1.918v43.317l26.11 16.539 26.945-16.546V2.182zm-26.5 6.006a.808.808 0 00-.735.45l-5.126 10.35-11.432 1.649a.808.808 0 00-.45 1.377l8.262 8.072-1.967 11.382a.808.808 0 001.171.852l10.23-5.36 10.218 5.386a.808.808 0 001.174-.85l-1.94-11.388 8.282-8.05a.808.808 0 00-.445-1.379l-11.429-1.675-5.1-10.364a.808.808 0 00-.714-.452zm4.55 11.91l-4.565-9.276-4.586 9.264a.808.808 0 01-.608.442L13.03 22l7.394 7.226c.19.186.277.453.232.715l-1.76 10.188 9.156-4.8a.809.809 0 01.751 0l9.146 4.824-1.736-10.192a.808.808 0 01.234-.716l7.412-7.205-10.23-1.5a.808.808 0 01-.606-.442z" fill="#000"/></svg>