<svg width="60" height="60" fill="none" xmlns="http://www.w3.org/2000/svg"><path fill-rule="evenodd" clip-rule="evenodd" d="M59.7.143c-.18-.12-.42-.18-.66-.12l-10.14 3.6V.742c0-.24-.12-.48-.3-.6s-.42-.18-.66-.12l-10.14 3.6V.742c0-.24-.12-.48-.3-.6s-.42-.18-.66-.12l-10.14 3.6V.742c0-.24-.12-.48-.3-.6s-.42-.18-.66-.12L.54 7.82c-.36.12-.54.42-.54.72v42.883c0 .3.18.6.54.72l25.2 7.797c.025 0 .05.01.079.022.041.017.09.038.161.038.18 0 .3-.06.42-.12.18-.12.3-.36.3-.6v-2.879l10.14 3.539c.03 0 .075.015.12.03s.09.03.12.03c.12 0 .3-.06.42-.12.18-.12.3-.36.3-.6v-2.879l10.14 3.539c.03 0 .075.015.12.03s.09.03.12.03c.12 0 .3-.06.42-.12.18-.12.3-.36.3-.6v-2.879l10.14 3.539c.03 0 .075.015.12.03s.09.03.12.03c.12 0 .3-.06.42-.12.18-.12.3-.36.3-.6V.743c0-.24-.12-.42-.3-.6zM25.2 58.261L1.44 50.944V9.08L25.2 1.763V58.26zm1.44-3.359l9.66 3.359V1.823l-9.66 3.359v49.72zm20.82 3.359l-9.66-3.419V5.182l9.66-3.36v56.44zm1.44-3.359l9.66 3.359V1.823L48.9 5.182v49.72z" fill="#000"/></svg>