<svg width="138" height="70" fill="none" xmlns="http://www.w3.org/2000/svg"><path d="M13.524 46.467l2.66 4.888h-5.32l2.66-4.888zm5.886 0l2.652 4.888h-5.311l2.66-4.888zm2.947 4.888l-2.652-4.888h5.319l-2.667 4.888zm-5.878 0l-2.66-4.888h5.32l-2.66 4.888zm-.227-10.011l2.652 4.888h-5.312l2.66-4.888zm5.886 0l2.652 4.888h-5.312l2.66-4.888zm2.946 4.888l-2.652-4.888h5.312l-2.66 4.888zm-5.885 0l-2.652-4.888h5.319l-2.667 4.888zm-.114-10.033l2.652 4.888h-5.319l2.667-4.888zm5.886 0l2.652 4.888h-5.319l2.667-4.888zm2.947 4.888L25.266 36.2h5.311l-2.66 4.888zm-5.886 0L19.38 36.2h5.312l-2.66 4.888zm-.204-10.019l2.652 4.889h-5.32l2.668-4.889zm5.878 0l2.652 4.889h-5.311l2.66-4.889zm2.954 4.889L28 31.068h5.32l-2.66 4.889zm-5.885 0l-2.652-4.889h5.311l-2.66 4.889zm-.121-10.034l2.652 4.889h-5.312l2.66-4.889zm5.886 0l2.652 4.889H27.88l2.66-4.889zm2.946 4.888l-2.652-4.888h5.312l-2.66 4.889zm-5.886 0l-2.652-4.888h5.32L27.6 30.812zm-.15-10.101l2.651 4.88H24.79l2.66-4.88zm5.885 0l2.652 4.88h-5.312l2.66-4.88zm2.947 4.88l-2.652-4.88h5.319l-2.667 4.88zm-5.886 0l-2.652-4.88h5.32l-2.668 4.88zm-.113-10.025l2.652 4.888h-5.312l2.66-4.888zm5.886 0l2.652 4.888H33.5l2.668-4.888zm2.946 4.88l-2.652-4.88h5.312l-2.66 4.88zm-5.885 0l-2.653-4.88h5.312l-2.66 4.88zm-.114-10.117l2.652 4.889h-5.32l2.668-4.889zm5.878 0l2.66 4.889h-5.32l2.66-4.889zm2.946 4.889l-2.651-4.889h5.319l-2.667 4.889zm-5.877 0l-2.66-4.889h5.32l-2.66 4.889zm-.121-10.034l2.652 4.889h-5.312l2.66-4.889zm5.886 0l2.651 4.889h-5.311l2.66-4.889zm2.946 4.889l-2.652-4.889h5.32l-2.668 4.889zm-5.885 0l-2.653-4.889h5.32l-2.667 4.889zM38.722 0l2.652 4.888h-5.311L38.723 0zm5.886 0l2.652 4.888h-5.32L44.609 0zm2.947 4.888L44.903 0h5.311l-2.66 4.888zm-5.886 0L39.017 0h5.311l-2.66 4.888zm-11.598.295l2.652 4.889h-5.319l2.667-4.889zm2.947 4.889l-2.652-4.889h5.311l-2.66 4.889zM32.844 0l2.652 4.888h-5.312L32.844 0zm2.946 4.888L33.14 0h5.319L35.79 4.888zm-11.612.295l2.652 4.889h-5.32l2.668-4.889zm2.947 4.889l-2.652-4.889h5.311l-2.66 4.889zM26.95 0l2.653 4.888H24.29L26.951 0zm2.947 4.888L27.245 0h5.32l-2.668 4.888zM18.3 5.183l2.652 4.889H15.64l2.66-4.889zm2.946 4.889l-2.652-4.889h5.312l-2.66 4.889zM21.08 0l2.652 4.888h-5.32L21.08 0zm2.947 4.888L21.375 0h5.311l-2.66 4.888zm-11.606.295l2.652 4.889H9.762l2.66-4.889zm2.947 4.889l-2.652-4.889h5.32l-2.668 4.889zM15.202 0l2.652 4.888h-5.32L15.203 0zm2.946 4.888L15.496 0h5.312l-2.66 4.888zm-8.673 5.184L6.823 5.183h5.319l-2.667 4.889zM9.308 0l2.652 4.888H6.641L9.308 0zm2.947 4.888L9.603 0h5.312l-2.66 4.888zm-5.855 0L3.74 0h5.32L6.4 4.888zm27.109 42.266l2.04-1.224c1.435 2.645 3.098 3.967 4.979 3.967.809 0 1.564-.189 2.267-.56.71-.377 1.246-.883 1.617-1.51.37-.635.551-1.3.551-2.01 0-.808-.272-1.594-.816-2.365-.748-1.065-2.123-2.35-4.11-3.853-2.002-1.511-3.249-2.607-3.74-3.28-.846-1.133-1.27-2.357-1.27-3.671 0-1.043.25-1.995.749-2.864.498-.861 1.208-1.534 2.115-2.032.907-.499 1.897-.74 2.962-.74a6.31 6.31 0 013.173.838c.982.559 2.025 1.594 3.128 3.09l-1.957 1.489c-.906-1.194-1.67-1.988-2.312-2.365a3.932 3.932 0 00-2.077-.575c-.968 0-1.76.295-2.38.884-.612.59-.915 1.315-.915 2.169 0 .521.106 1.027.325 1.519.212.49.612 1.027 1.194 1.601.31.303 1.345 1.104 3.098 2.403 2.078 1.534 3.506 2.901 4.276 4.095s1.164 2.395 1.164 3.604c0 1.738-.665 3.257-1.987 4.533-1.322 1.285-2.932 1.927-4.82 1.927-1.459 0-2.781-.393-3.967-1.171-1.194-.763-2.29-2.07-3.287-3.899zm19.146-19.538h13.758v2.35H55.057v7.525h11.258v2.35H55.057v9.436h11.258v2.35h-13.66V27.615zm16.078 0h2.614l7.956 18.548 8.085-18.549h2.614l-10.45 24.012h-.52l-10.3-24.012zm25.319 0h13.758v2.35H96.447v7.525h11.265v2.35H96.447v9.436h11.265v2.35h-13.66V27.615zm17.921 24.011V27.615h.522l15.98 18.406V27.616h2.372v24.011h-.544l-15.851-18.186v18.186h-2.479zM0 55.73h137.594v1.383H0z" fill="#fff"/><path fill-rule="evenodd" clip-rule="evenodd" d="M27.869 67.82c.314-.133.647-.35.98-.654a2.4 2.4 0 00.189.71H30a2.39 2.39 0 01-.225-.691c-.036-.237-.063-.815-.063-1.716v-1.298c0-.427-.018-.73-.045-.891a1.526 1.526 0 00-.297-.664c-.134-.18-.35-.322-.638-.436-.288-.114-.665-.18-1.124-.18-.468 0-.89.076-1.241.209-.36.132-.63.322-.818.568a2.345 2.345 0 00-.405.995l.9.133c.107-.417.251-.692.467-.853.207-.161.521-.246.953-.246.468 0 .81.123 1.052.34.18.162.27.437.27.826 0 .038 0 .123-.009.256-.35.123-.9.246-1.646.34a4.394 4.394 0 00-.818.143 2.46 2.46 0 00-.665.322 1.63 1.63 0 00-.468.56c-.117.227-.18.483-.18.767 0 .474.162.872.477 1.175.323.323.782.465 1.375.465.36 0 .702-.066 1.017-.18zm-.594-2.455c.657-.104 1.17-.228 1.502-.37h.009v.37c0 .436-.045.758-.144.967a1.49 1.49 0 01-.611.673 1.864 1.864 0 01-.954.246c-.36 0-.63-.085-.818-.256a.846.846 0 01-.279-.644c0-.17.045-.332.135-.465a.816.816 0 01.36-.322c.153-.076.413-.133.8-.2zM36 62.122V70h.98v-2.77a2 2 0 00.627.516 1.9 1.9 0 00.874.198c.447 0 .865-.132 1.274-.376.408-.244.713-.6.922-1.07.209-.46.323-.977.323-1.568a4.02 4.02 0 00-.285-1.493 2.505 2.505 0 00-.856-1.052A2.313 2.313 0 0038.547 62c-.37 0-.684.066-.95.216-.257.14-.494.357-.703.648v-.742H36zm1.35 4.498c-.314-.348-.456-.883-.456-1.615 0-.733.161-1.296.484-1.69.324-.367.694-.564 1.103-.564.409 0 .77.179 1.074.535.314.367.456.911.456 1.634 0 .76-.152 1.315-.456 1.69-.314.357-.684.535-1.121.535-.419 0-.79-.178-1.084-.525z" fill="#fff"/><path d="M45 62h5v.852h-1.978V68h-1.034v-5.148H45V62zm11.682 3.043h2.372v.778h-2.372zm13.36.717l.958.123c-.104.655-.36 1.177-.806 1.557-.427.37-.95.56-1.585.56-.787 0-1.414-.256-1.888-.769-.484-.522-.721-1.253-.721-2.212 0-.617.104-1.168.313-1.623.2-.466.522-.817.94-1.045A2.769 2.769 0 0168.627 62c.626 0 1.12.161 1.528.475.389.313.645.76.75 1.338l-.94.152c-.095-.39-.256-.674-.484-.873a1.254 1.254 0 00-.826-.294c-.493 0-.882.17-1.195.522-.313.35-.465.911-.465 1.67 0 .77.142 1.33.446 1.68.294.352.674.523 1.158.523.389 0 .702-.104.958-.351.247-.238.408-.598.484-1.082zM76 62h5v.852h-1.976V68h-1.048v-5.148H76V62zm9.487 7.878l-.1-.901c.199.056.379.093.523.093.198 0 .36-.046.495-.112a.863.863 0 00.307-.3c.063-.095.144-.339.279-.714.018-.057.045-.132.072-.245L85 62.01h1l1.144 3.296c.144.423.27.845.387 1.315.1-.442.235-.883.379-1.305L89.08 62H90l-2.072 5.784c-.216.62-.397 1.061-.523 1.286-.162.32-.35.554-.567.705a1.35 1.35 0 01-.757.225c-.18 0-.37-.047-.594-.122z" fill="#fff"/><path fill-rule="evenodd" clip-rule="evenodd" d="M99.378 62h-3.91c.027 2.574-.288 4.365-.976 5.364H94V70h.78v-1.76h4.421V70H100v-2.636h-.622V62zm-3.966 5.374c.492-.967.77-2.47.854-4.488h2.164v4.488h-3.018zM117 67.99V62h-2.631c-.653 0-1.156.168-1.501.484-.346.326-.514.742-.514 1.266 0 .444.131.83.402 1.166.261.346.671.553 1.212.633-.317.069-.625.346-.942.83L112 68h1.185l.839-1.315c.317-.494.56-.8.719-.89.167-.088.41-.138.755-.138h.551v2.333H117zm-2.323-5.14h1.362v1.977h-1.063c-.616 0-1.036-.089-1.288-.247-.251-.178-.363-.445-.363-.79 0-.258.084-.465.251-.663.168-.178.532-.277 1.101-.277zM107 61.139h-1V60h1v1.139zM107 68h-1v-5.799h1V68z" fill="#fff"/></svg>