<svg width="100" height="63" viewBox="0 0 100 63" fill="none" xmlns="http://www.w3.org/2000/svg">
<path fill-rule="evenodd" clip-rule="evenodd" d="M86.3767 0.306671C89.7478 0.306671 92.9855 1.55112 95.4956 3.81112C98.3589 6.39445 100 10.0833 99.9978 13.9344C99.9978 17.5744 98.5811 20.9967 96.0089 23.5689C93.4333 26.1456 90.0122 27.5633 86.3744 27.5633H84.2367V55.6878C84.2367 59.1222 81.4422 61.9167 78.0078 61.9167H77.3856C73.9511 61.9167 71.1567 59.1222 71.1567 55.6878V53.0222C71.1567 51.9022 71.8078 50.8711 72.8167 50.3967C73.2811 50.1778 73.5811 49.7056 73.5811 49.1922C73.5811 48.6822 73.2811 48.2122 72.8178 47.9933C71.81 47.52 71.1578 46.4889 71.1578 45.3678C71.1578 44.2478 71.8089 43.2178 72.8156 42.7433C73.28 42.5245 73.5811 42.0511 73.5811 41.5389C73.5811 41.0267 73.2811 40.5545 72.8156 40.3344C71.8089 39.86 71.1578 38.83 71.1578 37.71V37.4656C71.1578 36.3456 71.8089 35.3144 72.8178 34.84C73.2822 34.6211 73.5822 34.1489 73.5822 33.6356C73.5822 33.1256 73.2822 32.6544 72.8178 32.4356C71.81 31.9611 71.1578 30.9311 71.1578 29.81V27.5633H47.3344V42.0178C47.3344 44.1889 45.5689 45.9544 43.3989 45.9544H43.0544C40.8844 45.9544 39.1189 44.1878 39.1189 42.0178V40.5433C39.1189 39.7345 39.5889 38.99 40.3178 38.6478C40.3867 38.6156 40.46 38.5389 40.46 38.4233C40.46 38.3089 40.3844 38.2322 40.3189 38.2011C39.59 37.8578 39.1189 37.1133 39.1189 36.3056C39.1189 35.4978 39.5878 34.7544 40.3144 34.4111C40.3822 34.38 40.46 34.3022 40.46 34.1867C40.46 34.0711 40.3822 33.9933 40.3156 33.9622C39.5889 33.62 39.1189 32.8756 39.1189 32.0678V31.9322C39.1189 31.1233 39.5889 30.3789 40.3178 30.0367C40.3867 30.0044 40.46 29.9289 40.46 29.8122C40.46 29.6978 40.3833 29.6211 40.3178 29.59C39.59 29.2478 39.1189 28.5033 39.1189 27.6944V27.5633H38.6133C36.1156 27.5633 34.0844 25.5311 34.0844 23.0311V19.8611H32.9578V20.9656C32.9578 21.57 32.4678 22.06 31.8633 22.06H23.1567C21.4144 22.06 19.8389 21.0278 19.1422 19.4311L17.2222 15.0289H1.09444C0.49 15.0289 0 14.5378 0 13.9344C0 13.3311 0.49 12.8411 1.09444 12.8411H17.2222L19.1411 8.44C19.8378 6.84334 21.4133 5.81112 23.1556 5.81112H31.8622C32.4667 5.81112 32.9567 6.30112 32.9567 6.90556V7.55556H34.0833V4.84C34.0833 2.34 36.1156 0.306671 38.6122 0.306671H86.3767ZM21.1478 18.5556C21.4967 19.3544 22.2844 19.8711 23.1567 19.8711H30.7689V19.1133C30.7311 19.0033 30.6989 18.89 30.6989 18.7667V8.64889C30.6989 8.52556 30.7311 8.41223 30.7689 8.30223V7.99889H23.1567C22.2856 7.99889 21.4967 8.51556 21.1478 9.31445L19.1322 13.9344L21.1478 18.5556ZM32.9578 17.6722V13.9344V9.74223H34.0844V17.6722H32.9578ZM43.3978 43.7667C44.3611 43.7667 45.1456 42.9822 45.1456 42.0178V27.5644H41.3056V27.6956C42.0978 28.0111 42.6467 28.8756 42.6467 29.8122C42.6467 30.7511 42.0978 31.6167 41.2478 32.0167L41.3056 32.0678C42.0978 32.3833 42.6467 33.2489 42.6467 34.1867C42.6467 35.0633 42.1667 35.8767 41.41 36.3056C42.1667 36.7344 42.6467 37.5467 42.6467 38.4233C42.6467 39.3633 42.0978 40.2278 41.2478 40.6278L41.3056 42.0178C41.3056 42.9822 42.09 43.7667 43.0533 43.7667H43.3978ZM82.05 55.6878C82.05 57.9156 80.2378 59.7289 78.0089 59.7289H77.3867C75.1589 59.7289 73.3456 57.9167 73.3456 55.6878V53.0222C73.3456 52.7456 73.5044 52.4922 73.7489 52.3767C74.9756 51.7989 75.7689 50.55 75.7689 49.1933C75.7689 47.84 74.9767 46.5922 73.7489 46.0145C73.5033 45.8989 73.3456 45.6456 73.3456 45.3678C73.3456 45.0911 73.5033 44.8378 73.7478 44.7222C74.9756 44.1433 75.7689 42.8944 75.7689 41.5389C75.7689 40.1833 74.9756 38.9344 73.7478 38.3556C73.5033 38.2411 73.3456 37.9878 73.3456 37.71V37.4656C73.3456 37.1889 73.5044 36.9356 73.7489 36.82C74.9756 36.2422 75.7689 34.9933 75.7689 33.6367C75.7689 32.2844 74.9767 31.0367 73.7489 30.4578C73.5033 30.3422 73.3456 30.0889 73.3456 29.8122V27.5656H82.05V55.6878ZM86.3755 25.3756C89.4289 25.3756 92.3011 24.1844 94.4633 22.0222C96.6233 19.8633 97.8122 16.9911 97.8111 13.9344C97.8111 10.7011 96.4322 7.60334 94.0289 5.43556C91.9233 3.53778 89.2056 2.49334 86.3755 2.49334H38.6122C37.3222 2.49334 36.2722 3.54556 36.2722 4.83889V8.64889V18.7667V23.0311C36.2722 24.3233 37.3211 25.3756 38.6122 25.3756H86.3755Z" fill="#141518"/>
</svg>
