<svg width="60" height="60" viewBox="0 0 60 60" fill="none" xmlns="http://www.w3.org/2000/svg">
<path fill-rule="evenodd" clip-rule="evenodd" d="M59.7 0.143482C59.52 0.0235291 59.28 -0.0364474 59.04 0.0235291L48.9 3.62212V0.743247C48.9 0.503341 48.78 0.263435 48.6 0.143482C48.42 0.0235291 48.18 -0.0364474 47.94 0.0235291L37.8 3.62212V0.743247C37.8 0.503341 37.68 0.263435 37.5 0.143482C37.32 0.0235291 37.08 -0.0364474 36.84 0.0235291L26.7 3.62212V0.743247C26.7 0.503341 26.58 0.263435 26.4 0.143482C26.22 0.0235291 25.98 -0.0364474 25.74 0.0235291L0.54 7.82047C0.18 7.94042 0 8.24031 0 8.54019L0 51.4234C0 51.7232 0.18 52.0231 0.54 52.1431L25.74 59.94C25.7649 59.94 25.7897 59.9503 25.8188 59.9624C25.86 59.9794 25.9097 60 25.98 60C26.16 60 26.28 59.94 26.4 59.88C26.58 59.7601 26.7 59.5202 26.7 59.2803V56.4014L36.84 59.94C36.87 59.94 36.915 59.955 36.96 59.97C37.005 59.985 37.05 60 37.08 60C37.2 60 37.38 59.94 37.5 59.88C37.68 59.7601 37.8 59.5202 37.8 59.2803V56.4014L47.94 59.94C47.97 59.94 48.015 59.955 48.06 59.97C48.105 59.985 48.15 60 48.18 60C48.3 60 48.48 59.94 48.6 59.88C48.78 59.7601 48.9 59.5202 48.9 59.2803V56.4014L59.04 59.94C59.07 59.94 59.115 59.955 59.16 59.97C59.205 59.985 59.25 60 59.28 60C59.4 60 59.58 59.94 59.7 59.88C59.88 59.7601 60 59.5202 60 59.2803L60 0.743247C60 0.503341 59.88 0.323411 59.7 0.143482ZM25.2 58.2607L1.44 50.9436L1.44 9.07998L25.2 1.76285V4.70169L25.2 55.4418V58.2607ZM26.64 54.902L36.3 58.2607V55.4418L36.3 4.70169V1.82282L26.64 5.18151L26.64 54.902ZM47.46 58.2607L37.8 54.842L37.8 5.18151L47.46 1.82282V4.70169L47.46 55.4418V58.2607ZM48.9 54.902L58.56 58.2607L58.56 1.82282L48.9 5.18151L48.9 54.902Z" fill="black"/>
</svg>
