<svg width="110" height="58" viewBox="0 0 110 58" fill="none" xmlns="http://www.w3.org/2000/svg">
<path fill-rule="evenodd" clip-rule="evenodd" d="M30.9716 35.4689C30.9716 26.6081 38.18 19.3997 47.0408 19.3997C55.9017 19.3997 63.1101 26.6081 63.1089 35.4689C63.1089 44.3297 55.9005 51.5382 47.0408 51.5382C38.1812 51.5382 30.9716 44.3297 30.9716 35.4689ZM33.4125 35.4689C33.4125 42.9827 39.5258 49.0972 47.0408 49.0972C54.5559 49.0972 60.6679 42.9839 60.6679 35.4689C60.6679 27.9539 54.5547 21.8406 47.0408 21.8406C39.527 21.8406 33.4125 27.9551 33.4125 35.4689Z" fill="#141518"/>
<path fill-rule="evenodd" clip-rule="evenodd" d="M72.3907 50.0257H108.293C108.967 50.0257 109.513 50.572 109.513 51.2461V56.2898C109.513 56.9639 108.963 57.5103 108.289 57.5103C107.615 57.5103 107.069 56.9639 107.069 56.2898V52.4666H72.3883V54.0302V55.8871C72.3883 56.5612 71.8419 57.1075 71.1678 57.1075H22.909C22.2348 57.1075 21.6885 56.5612 21.6885 55.8871V54.9574L18.1987 51.7182C17.8689 51.9275 17.5258 52.0091 17.1388 52.0091C16.9831 52.0091 16.8212 51.9969 16.6509 51.9762L16.6347 51.9743L16.6346 51.9743C16.4857 51.9564 16.3068 51.9348 16.0814 51.9348C15.3805 51.9348 14.6955 51.7645 14.0992 51.442C12.9323 50.8129 12.2947 49.792 11.7788 48.7809C10.2431 45.779 9.16505 42.569 8.57733 39.241C8.44672 38.507 8.34256 37.7669 8.23856 37.0281L8.23662 37.0143C8.10399 36.0554 7.9677 35.0759 7.78275 34.156C7.09646 30.744 5.5791 27.3929 4.1104 24.1513L4.10905 24.1483C2.60184 20.8213 1.05109 17.3981 0.23485 13.6977C-0.440482 10.6398 0.217814 3.62732 3.83175 1.68528C7.27169 -0.163059 12.9846 1.38838 15.3696 4.81858C16.6777 6.70099 17.0962 8.86327 17.3335 10.7299C17.8481 14.7999 17.6683 18.8809 17.4943 22.8294L17.4941 22.8335L17.4853 23.0344C17.4346 24.1817 17.384 25.3278 17.353 26.4718C17.2301 30.9716 17.3664 36.1844 19.3133 40.7219C19.4289 40.992 19.5506 41.2609 19.6735 41.5286C19.7007 41.5896 19.7233 41.6329 19.7461 41.6768L19.7543 41.6925L19.7696 41.7221L21.6897 39.8762V35.4689C21.6897 21.4914 33.0621 10.119 47.0408 10.119C54.8759 10.119 62.2632 13.7634 67.0538 19.9205L67.1645 19.8401C67.7522 19.4167 68.486 19.2768 69.1868 19.4593C69.9023 19.6467 70.4937 20.1444 70.8101 20.8246C70.9841 21.2018 71.3053 21.5899 71.6898 21.8929C72.1322 22.2382 72.6526 22.5232 73.2032 22.8248L73.2279 22.8384C73.7511 23.1243 74.2914 23.42 74.8134 23.7911C76.3977 24.9191 77.2324 26.4998 77.0462 28.0196C76.9602 28.7348 76.6676 29.3268 76.4091 29.8498L76.4062 29.8557C76.3247 30.02 76.2431 30.1843 76.1714 30.351C75.7893 31.238 75.7126 32.2687 75.9572 33.2531C76.158 34.0647 75.9815 34.9104 75.4729 35.5723C74.9643 36.2331 74.194 36.6188 73.3581 36.631L72.3907 36.6456V50.0257ZM72.0449 24.9737C71.4273 24.6353 70.7886 24.2853 70.1859 23.8143C69.4947 23.2728 68.9301 22.5755 68.5967 21.8503L67.3154 22.7581C68.5699 24.6478 70.8758 28.8811 70.6434 34.2278L73.324 34.1888C73.4347 34.1876 73.5029 34.1304 73.5394 34.0817C73.5771 34.0331 73.6161 33.9515 73.5881 33.8408C73.2157 32.3417 73.3374 30.7586 73.9312 29.3824C74.0067 29.2053 74.0921 29.0308 74.1773 28.8568L74.2184 28.7728C74.4082 28.3895 74.5871 28.0269 74.6248 27.7227C74.7136 26.9962 74.02 26.2211 73.3995 25.7794C72.9955 25.4935 72.5416 25.244 72.0585 24.9812L72.0449 24.9737ZM13.9532 47.6699C12.5271 44.8834 11.5269 41.9046 10.9818 38.8164C10.864 38.1475 10.7688 37.4754 10.6628 36.7273L10.6628 36.7273L10.6423 36.5823L10.6375 36.548L10.6375 36.5479C10.5146 35.6584 10.3757 34.6532 10.1774 33.6729C9.4364 29.9896 7.86062 26.5083 6.32744 23.1255L6.32591 23.1222C4.87838 19.9267 3.38126 16.6217 2.61981 13.1696C2.01992 10.4549 2.87899 4.96825 4.98894 3.83539C7.32401 2.57964 11.707 3.82444 13.3655 6.21183C14.3742 7.66106 14.7137 9.46437 14.9133 11.0377C15.4021 14.8996 15.2275 18.8744 15.0584 22.7218L15.0581 22.7301C15.0045 23.9554 14.951 25.1807 14.9145 26.4049C14.7843 31.1711 14.94 36.7125 17.0731 41.6868C17.1708 41.9141 17.2723 42.139 17.3813 42.3805L17.3815 42.381L17.4674 42.5715C17.6426 42.9548 17.7777 43.1786 17.8945 43.3709C17.9093 43.3951 17.9217 43.4164 17.9338 43.4372L17.9541 43.4719L16.1386 45.2168C15.5107 45.8216 15.1554 46.6673 15.1627 47.5385C15.17 48.2442 15.4243 48.922 15.8563 49.472C15.6495 49.4404 15.4438 49.3929 15.2613 49.2944C14.6517 48.9658 14.2818 48.3124 13.9532 47.6699ZM24.1319 54.4244V54.6654H69.9498V54.029V51.2449V36.6796L69.3329 36.6882H69.3146C68.9678 36.6882 68.6381 36.5409 68.4056 36.2817C68.1708 36.0177 68.0601 35.666 68.1039 35.3156C68.952 28.5343 64.7065 23.3069 64.6639 23.2545C64.4498 22.9941 64.3512 22.6559 64.3938 22.3212C64.4376 21.9854 64.6165 21.6836 64.8891 21.4853L65.0777 21.349C60.747 15.8259 54.0947 12.5587 47.0433 12.5587C34.4103 12.5587 24.1331 22.8359 24.1331 35.4677V40.3946C24.1331 40.7268 23.998 41.0444 23.7583 41.2743L17.83 46.9751C17.6304 47.1674 17.6012 47.3973 17.6024 47.5154C17.6037 47.6346 17.6353 47.8622 17.8385 48.0508L23.7425 53.5301C23.9895 53.7601 24.1319 54.0849 24.1319 54.4244Z" fill="#141518"/>
</svg>
