<svg width="80" height="80" viewBox="0 0 80 80" fill="none" xmlns="http://www.w3.org/2000/svg">
<path fill-rule="evenodd" clip-rule="evenodd" d="M40 80C62.0914 80 80 62.0914 80 40C80 17.9086 62.0914 0 40 0C17.9086 0 0 17.9086 0 40C0 62.0914 17.9086 80 40 80Z" fill="white"/>
<path d="M24.7611 44.7769C23.7463 43.7582 23.7463 42.1186 24.7611 41.0998C25.2686 40.5904 25.9267 40.3357 26.5927 40.3357C27.2587 40.3357 27.9167 40.5904 28.4242 41.0998L37.4153 50.1255V22.6027C37.4153 21.17 38.5728 20 40.0079 20C41.4351 20 42.6006 21.162 42.6006 22.6027V50.1255L51.5758 41.0998C52.5907 40.081 54.224 40.081 55.2388 41.0998C56.2537 42.1186 56.2537 43.7582 55.2388 44.7769L41.8315 58.2359C41.3479 58.7214 40.6898 59 40 59C39.3102 59 38.6521 58.7294 38.1685 58.2359L24.7611 44.7769Z" fill="black"/>
</svg>
