<svg width="56" height="60" viewBox="0 0 56 60" fill="none" xmlns="http://www.w3.org/2000/svg">
<path fill-rule="evenodd" clip-rule="evenodd" d="M9.50205 4.37176L21.7108 0.208008L21.7118 0.208072H34.7091L46.6179 4.35505C46.8485 4.38473 47.0531 4.5176 47.174 4.71618L47.1787 4.72335L47.1799 4.72574L55.7177 18.3396C56.0169 18.6308 56.0275 19.108 55.7416 19.4123L28.7906 59.4892C28.6484 59.7005 28.4104 59.8272 28.1556 59.8272C27.9009 59.8272 27.6629 59.7005 27.5207 59.4892L0.524349 19.3168C0.283868 19.0273 0.289444 18.606 0.537503 18.3231L8.8922 4.87758C8.93511 4.76313 9.00482 4.66062 9.09548 4.57863L9.10266 4.57026C9.11201 4.56166 9.12158 4.55328 9.13135 4.54515C9.18298 4.50197 9.24007 4.46578 9.30115 4.43753C9.31954 4.42841 9.33829 4.42003 9.35736 4.41242L9.35975 4.41122C9.4058 4.39351 9.45345 4.3803 9.50205 4.37176ZM34.4498 1.73862H21.9647L12.0072 5.13346L21.9672 8.52952H21.9696H34.1067C34.136 8.52462 34.1655 8.52142 34.1952 8.51995C34.248 8.51768 34.3009 8.52089 34.353 8.52952H34.4523L44.2004 5.13468L34.4498 1.73862ZM9.9631 6.05305L20.8653 9.77078L15.0944 26.4973L2.17731 18.5822L9.96322 6.05262L9.9631 6.05305ZM54.1029 18.6468L46.2062 6.05664L46.2054 6.05645L35.2426 9.8746L41.0039 26.5668L54.1029 18.6468ZM22.3849 10.0602H33.6888L39.4944 26.8828H16.5805L22.3849 10.0602H22.3849ZM14.8911 28.1685L3.71637 21.3212L24.7207 52.5806L14.8911 28.1685ZM52.5956 21.3463L52.5951 21.3469L41.3125 28.1704L31.5307 52.6712L52.5951 21.3469L52.5962 21.3463H52.5956ZM39.567 28.4134H16.639H16.6384L28.1517 57.0059L39.567 28.4134Z" fill="black"/>
</svg>
