<svg width="55" height="73" viewBox="0 0 55 73" fill="none" xmlns="http://www.w3.org/2000/svg">
<path fill-rule="evenodd" clip-rule="evenodd" d="M53.1616 4.90223H35.1154V1.16399C35.1154 0.521429 34.594 0 33.9506 0H20.375C19.7317 0 19.2102 0.521429 19.2102 1.16479V4.90303H1.16479C0.521429 4.90303 0 5.42446 0 6.06782V71.0346C0 71.678 0.521429 72.1994 1.16479 72.1994H53.1616C53.805 72.1994 54.3264 71.678 54.3264 71.0346V6.06702C54.3264 5.42366 53.805 4.90223 53.1616 4.90223ZM21.5398 2.32878H32.7866V9.80446H21.5398V2.32878ZM2.32958 69.869H51.9969H51.9985V7.23101H35.1162V10.9693C35.1162 11.6126 34.5948 12.134 33.9514 12.134H20.3758C19.7325 12.134 19.211 11.6126 19.211 10.9693V7.23101H2.32958V69.869Z" fill="#141518"/>
<path d="M15.6477 22.1631C15.0043 22.1631 14.4829 22.6845 14.4829 23.3279C14.4829 23.9713 15.0043 24.4927 15.6477 24.4927H38.6788C39.3221 24.4927 39.8436 23.9713 39.8436 23.3279C39.8436 22.6845 39.3221 22.1631 38.6788 22.1631H15.6477Z" fill="#141518"/>
<path d="M38.6788 37.3856H15.6477C15.0043 37.3856 14.4829 37.9071 14.4829 38.5504C14.4829 39.1938 15.0043 39.7152 15.6477 39.7152H38.6788C39.3221 39.7152 39.8436 39.1938 39.8436 38.5504C39.8436 37.9071 39.3221 37.3856 38.6788 37.3856Z" fill="#141518"/>
<path d="M38.6788 52.6089H15.6477C15.0043 52.6089 14.4829 53.1304 14.4829 53.7737C14.4829 54.4171 15.0043 54.9385 15.6477 54.9385H38.6788C39.3221 54.9385 39.8436 54.4171 39.8436 53.7737C39.8436 53.1296 39.3221 52.6089 38.6788 52.6089Z" fill="#141518"/>
</svg>
