<svg width="57" height="64" viewBox="0 0 57 64" fill="none" xmlns="http://www.w3.org/2000/svg">
<path fill-rule="evenodd" clip-rule="evenodd" d="M0.301773 1.37369C0.301809 0.927414 0.663578 0.565644 1.10985 0.565609L1.10981 0.565552H55.7813C56.2276 0.565587 56.5894 0.927357 56.5894 1.37363V45.9441C56.5893 46.2248 56.4435 46.4854 56.2043 46.6323L28.4445 63.6776C28.1816 63.8396 27.8494 63.8377 27.5884 63.6726L0.678035 46.6273C0.44379 46.4791 0.301776 46.2213 0.301773 45.9442V1.37369ZM54.9733 2.18177H1.91793H1.91729V45.4988L28.0273 62.0379L54.9733 45.4923V2.18177ZM28.4721 8.18807C28.4452 8.18757 28.4182 8.18841 28.3913 8.1906C28.1102 8.2152 27.8623 8.38462 27.7373 8.63757L22.6123 18.9888L11.1802 20.6365C10.8759 20.6805 10.6229 20.8933 10.5276 21.1856C10.4322 21.4779 10.5109 21.799 10.7307 22.014L18.9919 30.0858L17.0247 41.4681C16.9728 41.7711 17.0973 42.0773 17.3459 42.2581C17.5945 42.439 17.9241 42.4631 18.1964 42.3204L28.4261 36.9593L38.6435 42.3456C38.9155 42.4893 39.2455 42.4661 39.4947 42.2857C39.744 42.1054 39.8692 41.7991 39.8177 41.4958L37.8783 30.1083L46.1602 22.0579C46.3806 21.8435 46.4602 21.5226 46.3656 21.2301C46.271 20.9375 46.0186 20.724 45.7145 20.6791L34.2863 19.0036L29.1865 8.64016C29.0524 8.36693 28.7762 8.19221 28.4718 8.18814L28.4721 8.18807ZM33.0239 20.0987L28.4582 10.8219L28.4579 10.8218L23.8721 20.0856C23.7543 20.3241 23.5267 20.4893 23.2635 20.5275L13.0312 22.001L20.4255 29.2272C20.6153 29.413 20.7016 29.6801 20.6565 29.9419L18.8977 40.1301L28.0529 35.3309C28.2881 35.2075 28.569 35.2075 28.8042 35.3309L37.9504 40.1541L36.2143 29.962C36.1694 29.6994 36.2568 29.4316 36.4479 29.2461L43.8596 22.0406L33.6299 20.5406C33.3677 20.5016 33.1412 20.3365 33.0239 20.0987Z" fill="black"/>
</svg>
