<svg width="60" height="60" viewBox="0 0 60 60" fill="none" xmlns="http://www.w3.org/2000/svg">
<path fill-rule="evenodd" clip-rule="evenodd" d="M0.426315 30.0279C0.426315 13.617 13.7463 0.295736 30.1573 0.295736L30.1569 0.295654C34.7397 0.295654 39.0858 1.33523 42.9647 3.18955C43.5624 3.51235 43.5024 3.89546 43.2756 4.42208L33.8897 23.4124L42.5865 22.2023C43.23 22.1135 43.6994 22.7966 43.3858 23.3655L24.4877 57.5965C26.3199 57.9715 28.2125 58.1799 30.1572 58.1799C45.7149 58.1799 58.3104 45.5856 58.3104 30.0279C58.3104 20.0945 53.1719 11.3724 45.4098 6.35953C44.5327 5.82597 45.384 4.5112 46.2659 5.03346C54.4627 10.3267 59.8891 19.5497 59.8891 30.0276C59.8891 46.4385 46.5678 59.7585 30.1569 59.7585C27.7517 59.7585 25.4119 59.4733 23.1703 58.9333C22.4915 58.7411 22.5398 58.2165 22.63 57.7552L28.7299 32.1788L19.0996 33.5184C18.5527 33.5942 18.0989 33.0996 18.2214 32.5612L25.1011 2.33574C11.9618 4.71679 2.00557 16.1976 2.00557 30.0279C2.00557 42.0229 9.49925 52.2541 20.0548 56.3136C21.0376 56.6911 20.4714 58.1652 19.4886 57.7877C8.33684 53.4987 0.426315 42.681 0.426315 30.0279ZM41.5762 4.29736C38.0855 2.74588 34.2265 1.87468 30.1573 1.87468L30.1573 1.87406C29.013 1.87406 27.8871 1.95008 26.7786 2.08254L20.0151 31.7977L29.6567 30.4569C30.2071 30.3802 30.6623 30.8809 30.5338 31.4215L25.5133 52.4733L41.2421 23.9834L32.6305 25.1811C32.0031 25.2682 31.5338 24.6181 31.8139 24.05L41.5762 4.29736Z" fill="black"/>
</svg>
