<svg width="59" height="60" viewBox="0 0 59 60" fill="none" xmlns="http://www.w3.org/2000/svg">
<path fill-rule="evenodd" clip-rule="evenodd" d="M58.4706 27.5294C58.7059 27.6471 58.8235 27.9412 58.8235 28.1765C58.8235 28.4706 58.7059 28.7059 58.4706 28.7647L53.0588 31.7647L58.4706 34.7647C58.7059 34.8824 58.8235 35.1177 58.8235 35.4118C58.8235 35.7059 58.7059 35.9412 58.4706 36.0588L53.0588 39.0588L58.4706 42.0588C58.7059 42.1765 58.8235 42.4118 58.8235 42.7059C58.8235 43 58.7059 43.2353 58.4706 43.353L29.7647 59.353C29.6471 59.4118 29.5294 59.4706 29.4118 59.4706C29.2941 59.4706 29.1765 59.4118 29.0588 59.353L0.352941 43.353C0.117647 43.2353 0 42.9412 0 42.7059C0 42.4706 0.117647 42.1765 0.352941 42.1177L5.76471 39.1177L0.352941 36.1177C0.117647 36 0 35.7647 0 35.4706C0 35.1765 0.117647 34.9412 0.352941 34.8235L5.76471 31.8235L0.352941 28.8235C0.117647 28.7059 0 28.4118 0 28.1765C0 27.9412 0.117647 27.7059 0.352941 27.5882L5.76471 24.5882L0.352941 21.5882C0.117647 21.4706 0 21.2353 0 20.9412C0 20.6471 0.117647 20.4118 0.352941 20.2941L5.23529 17.5882L0.352941 14.8824C0.117647 14.7647 0 14.5294 0 14.2353C0 13.9412 0.176471 13.7059 0.411765 13.5294L29.1176 0.588246C29.2941 0.529423 29.5294 0.529423 29.7059 0.588246L58.4118 13.5294C58.6471 13.6471 58.8235 13.8824 58.8235 14.1765C58.8235 14.4118 58.7059 14.7059 58.4706 14.8235L53.5882 17.5294L58.4706 20.2353C58.7059 20.353 58.8235 20.5882 58.8235 20.8824C58.8235 21.1765 58.7059 21.4118 58.4706 21.5294L53.0588 24.5294L58.4706 27.5294ZM56.5294 14.353L29.4118 2.11766L2.29412 14.2941L29.4118 29.4118L56.5294 14.353ZM6.70588 18.4118L29.0588 30.8824C29.1765 30.9412 29.2941 31 29.4118 31C29.5294 31 29.6471 30.9412 29.7647 30.8824L52.1176 18.4118L56.6471 20.9412L29.4118 36.1177L2.17647 20.9412L6.70588 18.4118ZM56.6471 42.7059L51.7647 40C51.7422 39.9775 51.7198 39.9637 51.7006 39.9518C51.6695 39.9326 51.6471 39.9187 51.6471 39.8824L29.7647 52.0588C29.6471 52.1177 29.5294 52.1765 29.4118 52.1765C29.2941 52.1765 29.1765 52.1177 29.0588 52.0588L7.17647 39.8824C7.154 39.9048 7.14012 39.9273 7.12826 39.9465C7.10906 39.9775 7.09518 40 7.05882 40L2.17647 42.7059L29.4118 57.8824L56.6471 42.7059ZM51.7647 32.7059L56.6471 35.4118L29.4118 50.5882L2.17647 35.4706L7.05882 32.7647C7.09518 32.7647 7.10906 32.7422 7.12826 32.7112C7.14012 32.692 7.154 32.6695 7.17647 32.6471L29.0588 44.8235C29.1765 44.8824 29.2941 44.9412 29.4118 44.9412C29.5294 44.9412 29.6471 44.8824 29.7647 44.8235L51.6471 32.6471C51.6471 32.6471 51.7059 32.7059 51.7647 32.7059ZM2.17647 28.1765L29.4118 43.353L56.6471 28.1765L51.7647 25.4706L51.6471 25.353L29.7647 37.5294C29.6471 37.5882 29.5294 37.6471 29.4118 37.6471C29.2941 37.6471 29.1765 37.5882 29.0588 37.5294L7.17647 25.353C7.154 25.3754 7.14012 25.3979 7.12825 25.4171C7.10906 25.4481 7.09518 25.4706 7.05882 25.4706L2.17647 28.1765Z" fill="black"/>
</svg>
