<svg width="76" height="65" viewBox="0 0 76 65" fill="none" xmlns="http://www.w3.org/2000/svg">
<path fill-rule="evenodd" clip-rule="evenodd" d="M0 31.9924C0 14.4673 16.9987 0.209656 37.8947 0.209656C58.7907 0.209656 75.7903 14.4682 75.7903 31.9932C75.7903 49.5183 58.7916 63.776 37.8956 63.776C30.6678 63.776 23.6665 62.0699 17.5992 58.8362L10.2383 63.253C9.64295 63.6101 9.00547 63.7911 8.34358 63.7911C7.03158 63.7911 5.80463 63.0627 5.14105 61.8905C4.49095 60.7436 4.51537 59.3726 5.20589 58.2214L8.75537 52.3057C3.10147 46.6054 0 39.4282 0 31.9924ZM18.1634 56.3596C24.0101 59.6118 30.8328 61.3305 37.8947 61.3305C57.4425 61.3305 73.3448 48.1701 73.3448 31.9924C73.3448 15.8147 57.4425 2.65429 37.8947 2.65429C18.3469 2.65429 2.44463 15.8156 2.44463 31.9924C2.44463 39.0543 5.53347 45.8829 11.1427 51.2219L11.8518 51.8972L7.30189 59.4787C6.99705 59.9873 7.11495 60.416 7.26737 60.6854C7.60842 61.2876 8.35032 61.5343 8.98021 61.1562L17.5461 56.016L18.1634 56.3596Z" fill="#141518"/>
<path fill-rule="evenodd" clip-rule="evenodd" d="M31.7827 31.8888C31.7827 28.5187 34.5246 25.776 37.8947 25.776C41.2648 25.776 44.0076 28.5187 44.0076 31.8888C44.0076 35.2589 41.2648 38.0008 37.8947 38.0008C34.5246 38.0008 31.7827 35.2589 31.7827 31.8888ZM34.2274 31.8888C34.2274 33.9115 35.8728 35.5562 37.8947 35.5562C39.9166 35.5562 41.5629 33.9115 41.5629 31.8888C41.5629 29.8661 39.9175 28.2206 37.8947 28.2206C35.872 28.2206 34.2274 29.8661 34.2274 31.8888Z" fill="#141518"/>
<path fill-rule="evenodd" clip-rule="evenodd" d="M14.6686 31.8888C14.6686 28.5187 17.4105 25.776 20.7798 25.776C24.1507 25.776 26.8926 28.5187 26.8926 31.8888C26.8926 35.2589 24.1499 38.0008 20.7798 38.0008C17.4105 38.0008 14.6686 35.2589 14.6686 31.8888ZM17.1133 31.8888C17.1133 33.9115 18.7587 35.5562 20.7798 35.5562C22.8025 35.5562 24.448 33.9115 24.448 31.8888C24.448 29.8661 22.8017 28.2206 20.7798 28.2206C18.7579 28.2206 17.1133 29.8661 17.1133 31.8888Z" fill="#141518"/>
<path fill-rule="evenodd" clip-rule="evenodd" d="M48.8985 31.8888C48.8985 28.5187 51.6404 25.776 55.0097 25.776C58.3798 25.776 61.1217 28.5187 61.1217 31.8888C61.1217 35.2589 58.3798 38.0008 55.0097 38.0008C51.6404 38.0008 48.8985 35.2589 48.8985 31.8888ZM51.3432 31.8888C51.3432 33.9115 52.9886 35.5562 55.0097 35.5562C57.0316 35.5562 58.6771 33.9115 58.6771 31.8888C58.6771 29.8661 57.0316 28.2206 55.0097 28.2206C52.9878 28.2206 51.3432 29.8661 51.3432 31.8888Z" fill="#141518"/>
</svg>
