<svg width="138" height="70" viewBox="0 0 138 70" fill="none" xmlns="http://www.w3.org/2000/svg">
<path d="M13.5244 46.4666L16.184 51.355H10.8649L13.5244 46.4666Z" fill="white"/>
<path d="M19.4102 46.4666L22.0622 51.355H16.7507L19.4102 46.4666Z" fill="white"/>
<path d="M22.3569 51.355L19.7049 46.4666H25.024L22.3569 51.355Z" fill="white"/>
<path d="M16.4786 51.355L13.8191 46.4666H19.1382L16.4786 51.355Z" fill="white"/>
<path d="M16.252 41.344L18.904 46.2324H13.5925L16.252 41.344Z" fill="white"/>
<path d="M22.1378 41.344L24.7898 46.2324H19.4782L22.1378 41.344Z" fill="white"/>
<path d="M25.0844 46.2324L22.4324 41.344H27.744L25.0844 46.2324Z" fill="white"/>
<path d="M19.1987 46.2324L16.5467 41.344H21.8658L19.1987 46.2324Z" fill="white"/>
<path d="M19.0853 36.1987L21.7373 41.0872H16.4182L19.0853 36.1987Z" fill="white"/>
<path d="M24.9711 36.1987L27.6231 41.0872H22.304L24.9711 36.1987Z" fill="white"/>
<path d="M27.9177 41.0872L25.2657 36.1987H30.5773L27.9177 41.0872Z" fill="white"/>
<path d="M22.032 41.0872L19.38 36.1987H24.6916L22.032 41.0872Z" fill="white"/>
<path d="M21.828 31.0684L24.48 35.9568H19.1609L21.828 31.0684Z" fill="white"/>
<path d="M27.7062 31.0684L30.3582 35.9568H25.0467L27.7062 31.0684Z" fill="white"/>
<path d="M30.6605 35.9568L28.0009 31.0684H33.32L30.6605 35.9568Z" fill="white"/>
<path d="M24.7747 35.9568L22.1227 31.0684H27.4342L24.7747 35.9568Z" fill="white"/>
<path d="M24.6538 25.9231L27.3058 30.8115H21.9942L24.6538 25.9231Z" fill="white"/>
<path d="M30.5396 25.9231L33.1916 30.8115H27.88L30.5396 25.9231Z" fill="white"/>
<path d="M33.4862 30.8115L30.8342 25.9231H36.1458L33.4862 30.8115Z" fill="white"/>
<path d="M27.6004 30.8115L24.9484 25.9231H30.2675L27.6004 30.8115Z" fill="white"/>
<path d="M27.4494 20.7097L30.1014 25.5906H24.7898L27.4494 20.7097Z" fill="white"/>
<path d="M33.3351 20.7097L35.9871 25.5906H30.6755L33.3351 20.7097Z" fill="white"/>
<path d="M36.2818 25.5906L33.6298 20.7097H38.9489L36.2818 25.5906Z" fill="white"/>
<path d="M30.396 25.5906L27.744 20.7097H33.0631L30.396 25.5906Z" fill="white"/>
<path d="M30.2827 15.5645L32.9347 20.4529H27.6231L30.2827 15.5645Z" fill="white"/>
<path d="M36.1685 15.5645L38.8205 20.4529H33.5013L36.1685 15.5645Z" fill="white"/>
<path d="M39.1151 20.4453L36.4631 15.5645H41.7747L39.1151 20.4453Z" fill="white"/>
<path d="M33.2293 20.4453L30.5773 15.5645H35.8889L33.2293 20.4453Z" fill="white"/>
<path d="M33.116 10.3284L35.768 15.2168H30.4489L33.116 10.3284Z" fill="white"/>
<path d="M38.9942 10.3284L41.6538 15.2168H36.3347L38.9942 10.3284Z" fill="white"/>
<path d="M41.9409 15.2168L39.2889 10.3284H44.608L41.9409 15.2168Z" fill="white"/>
<path d="M36.0627 15.2168L33.4031 10.3284H38.7222L36.0627 15.2168Z" fill="white"/>
<path d="M35.9418 5.18311L38.5938 10.0715H33.2822L35.9418 5.18311Z" fill="white"/>
<path d="M41.8275 5.18311L44.4795 10.0715H39.168L41.8275 5.18311Z" fill="white"/>
<path d="M44.7742 10.0715L42.1222 5.18311H47.4413L44.7742 10.0715Z" fill="white"/>
<path d="M38.8885 10.0715L36.2365 5.18311H41.5556L38.8885 10.0715Z" fill="white"/>
<path d="M38.7222 0L41.3742 4.88844H36.0627L38.7222 0Z" fill="white"/>
<path d="M44.608 0L47.26 4.88844H41.9409L44.608 0Z" fill="white"/>
<path d="M47.5546 4.88844L44.9026 0H50.2142L47.5546 4.88844Z" fill="white"/>
<path d="M41.6689 4.88844L39.0169 0H44.3285L41.6689 4.88844Z" fill="white"/>
<path d="M30.0711 5.18311L32.7231 10.0715H27.404L30.0711 5.18311Z" fill="white"/>
<path d="M33.0178 10.0715L30.3658 5.18311H35.6773L33.0178 10.0715Z" fill="white"/>
<path d="M32.844 0L35.496 4.88844H30.1844L32.844 0Z" fill="white"/>
<path d="M35.7907 4.88844L33.1387 0H38.4578L35.7907 4.88844Z" fill="white"/>
<path d="M24.1778 5.18311L26.8298 10.0715H21.5107L24.1778 5.18311Z" fill="white"/>
<path d="M27.1245 10.0715L24.4725 5.18311H29.784L27.1245 10.0715Z" fill="white"/>
<path d="M26.9507 0L29.6027 4.88844H24.2911L26.9507 0Z" fill="white"/>
<path d="M29.8974 4.88844L27.2454 0H32.5645L29.8974 4.88844Z" fill="white"/>
<path d="M18.2996 5.18311L20.9516 10.0715H15.64L18.2996 5.18311Z" fill="white"/>
<path d="M21.2462 10.0715L18.5942 5.18311H23.9058L21.2462 10.0715Z" fill="white"/>
<path d="M21.08 0L23.732 4.88844H18.4129L21.08 0Z" fill="white"/>
<path d="M24.0267 4.88844L21.3747 0H26.6863L24.0267 4.88844Z" fill="white"/>
<path d="M12.4213 5.18311L15.0733 10.0715H9.76178L12.4213 5.18311Z" fill="white"/>
<path d="M15.368 10.0715L12.716 5.18311H18.0351L15.368 10.0715Z" fill="white"/>
<path d="M15.2018 0L17.8538 4.88844H12.5347L15.2018 0Z" fill="white"/>
<path d="M18.1485 4.88844L15.4965 0H20.808L18.1485 4.88844Z" fill="white"/>
<path d="M9.47469 10.0715L6.82269 5.18311H12.1418L9.47469 10.0715Z" fill="white"/>
<path d="M9.30847 0L11.9605 4.88844H6.64136L9.30847 0Z" fill="white"/>
<path d="M12.2551 4.88844L9.60309 0H14.9146L12.2551 4.88844Z" fill="white"/>
<path d="M6.39955 4.88844L3.73999 0H9.0591L6.39955 4.88844Z" fill="white"/>
<path d="M33.5089 47.1543L35.5489 45.9303C36.9845 48.5748 38.6467 49.897 40.528 49.897C41.3365 49.897 42.092 49.7081 42.7947 49.3379C43.5049 48.9601 44.0414 48.4539 44.4116 47.8268C44.7818 47.1921 44.9631 46.5272 44.9631 45.817C44.9631 45.0086 44.6911 44.2228 44.1471 43.4521C43.3991 42.3868 42.024 41.1023 40.0369 39.5988C38.0347 38.0877 36.788 36.9921 36.2969 36.3197C35.4507 35.1863 35.0276 33.9623 35.0276 32.6477C35.0276 31.605 35.2769 30.653 35.7756 29.7841C36.2742 28.9228 36.9845 28.2503 37.8911 27.7517C38.7978 27.253 39.7876 27.0112 40.8529 27.0112C41.9862 27.0112 43.044 27.2908 44.0262 27.8499C45.0085 28.409 46.0511 29.4441 47.1542 30.9401L45.1974 32.4286C44.2907 31.2348 43.5276 30.4415 42.8854 30.0637C42.2507 29.6783 41.5556 29.4895 40.8076 29.4895C39.8405 29.4895 39.0471 29.7841 38.4276 30.3735C37.8156 30.9628 37.5134 31.6881 37.5134 32.5419C37.5134 33.0632 37.6191 33.5695 37.8382 34.0606C38.0498 34.5517 38.4502 35.0881 39.032 35.6623C39.3418 35.9646 40.3769 36.7655 42.1298 38.065C44.2076 39.5988 45.6356 40.9663 46.4062 42.1601C47.1769 43.3539 47.5698 44.5552 47.5698 45.7641C47.5698 47.5019 46.9049 49.0206 45.5827 50.2975C44.2605 51.5819 42.6511 52.2241 40.7622 52.2241C39.304 52.2241 37.9818 51.8312 36.7956 51.053C35.6018 50.2899 34.5062 48.9828 33.5089 47.1543Z" fill="white"/>
<path d="M52.6547 27.6155H66.4133V29.9653H55.0573V37.4906H66.3151V39.8404H55.0573V49.2773H66.3151V51.627H52.6547V27.6155Z" fill="white"/>
<path d="M68.7329 27.6155H71.3471L79.3031 46.1644L87.3876 27.6155H90.0018L79.5525 51.627H79.0311L68.7329 27.6155Z" fill="white"/>
<path d="M94.0516 27.6155H107.81V29.9653H96.4467V37.4906H107.712V39.8404H96.4467V49.2773H107.712V51.627H94.0516V27.6155Z" fill="white"/>
<path d="M111.973 51.627V27.6155H112.495L128.475 46.0208V27.6155H130.847V51.627H130.303L114.452 33.4408V51.627H111.973Z" fill="white"/>
<rect y="55.7297" width="137.594" height="1.38267" fill="white"/>
<path fill-rule="evenodd" clip-rule="evenodd" d="M27.8687 67.8199C28.1835 67.6872 28.5162 67.4692 28.8489 67.1659C28.8759 67.4313 28.9478 67.6682 29.0378 67.8768H30C29.8921 67.6588 29.8112 67.4218 29.7752 67.1848C29.7392 66.9479 29.7122 66.3697 29.7122 65.4692V64.1706C29.7122 63.7441 29.6942 63.4408 29.6673 63.2796C29.6133 63.0142 29.5144 62.7962 29.3705 62.6161C29.2356 62.436 29.0198 62.2938 28.732 62.1801C28.4442 62.0664 28.0665 62 27.6079 62C27.1403 62 26.7176 62.0758 26.3669 62.2085C26.0072 62.3412 25.7374 62.5308 25.5486 62.7773C25.3597 63.0332 25.2158 63.3649 25.1439 63.7725L26.0432 63.9052C26.1511 63.4882 26.295 63.2133 26.5108 63.0521C26.7176 62.891 27.0324 62.8057 27.464 62.8057C27.9317 62.8057 28.2734 62.9289 28.5162 63.1469C28.696 63.3081 28.786 63.5829 28.786 63.9716V63.9716C28.786 64.0095 28.786 64.0948 28.777 64.2275C28.4263 64.3507 27.8777 64.4739 27.1313 64.5687C26.7626 64.6066 26.4928 64.654 26.3129 64.7109C26.0612 64.7867 25.8453 64.9005 25.6475 65.0332C25.4586 65.1754 25.2968 65.3649 25.1799 65.5924C25.0629 65.8199 25 66.0758 25 66.3602C25 66.8341 25.1619 67.2322 25.4766 67.5355C25.8004 67.8578 26.259 68 26.8525 68C27.2122 68 27.554 67.9336 27.8687 67.8199ZM27.2752 65.3649C27.9317 65.2607 28.4442 65.1374 28.777 64.9953H28.786V65.3649C28.786 65.8009 28.741 66.1232 28.6421 66.3318C28.5072 66.6161 28.3094 66.8436 28.0306 67.0047C27.7518 67.1659 27.4371 67.2512 27.0773 67.2512C26.7176 67.2512 26.4478 67.1659 26.259 66.9953C26.0701 66.8152 25.9802 66.6066 25.9802 66.3507C25.9802 66.1801 26.0252 66.019 26.1151 65.8863C26.196 65.7536 26.3219 65.6303 26.4748 65.564C26.6277 65.4882 26.8885 65.4313 27.2752 65.3649Z" fill="white"/>
<path fill-rule="evenodd" clip-rule="evenodd" d="M36 62.1221V69.9906V70H36.9791V67.23C37.1407 67.4366 37.3498 67.6056 37.6065 67.7465C37.8631 67.8779 38.1578 67.9437 38.481 67.9437C38.9278 67.9437 39.346 67.8122 39.7548 67.5681C40.1635 67.3239 40.4677 66.9671 40.6768 66.4977C40.8859 66.0376 41 65.5211 41 64.9296C41 64.385 40.8954 63.8967 40.7148 63.4366C40.5152 62.9859 40.2205 62.6385 39.8593 62.385C39.4791 62.1315 39.0418 62 38.5475 62C38.1768 62 37.8631 62.0657 37.597 62.216C37.3403 62.3568 37.1027 62.5728 36.8935 62.8638V62.1221H36ZM37.3498 66.6197C37.0361 66.2723 36.8935 65.7371 36.8935 65.0047C36.8935 64.2723 37.0551 63.7089 37.3783 63.3146C37.7015 62.9484 38.0722 62.7512 38.481 62.7512C38.8897 62.7512 39.251 62.9296 39.5551 63.2864C39.8688 63.6526 40.0114 64.1972 40.0114 64.9202C40.0114 65.6808 39.8593 66.2347 39.5551 66.6103C39.2414 66.9671 38.8707 67.1455 38.4335 67.1455C38.0152 67.1455 37.6445 66.9671 37.3498 66.6197Z" fill="white"/>
<path d="M45 62H50V62.8515H48.0223V68H46.9878V62.8515H45V62Z" fill="white"/>
<rect x="56.6818" y="65.0435" width="2.37244" height="0.778222" fill="white"/>
<path d="M70.0417 65.7595L71 65.8829C70.8956 66.538 70.6395 67.0601 70.1935 67.4399C69.7666 67.8101 69.2448 68 68.6091 68C67.8216 68 67.1954 67.7437 66.7211 67.231C66.2372 66.7089 66 65.9778 66 65.019C66 64.4019 66.1044 63.8513 66.3131 63.3956C66.5123 62.9304 66.8349 62.5791 67.2524 62.3513C67.6603 62.1234 68.1157 62 68.6281 62C69.2543 62 69.7476 62.1614 70.1556 62.4747C70.5446 62.788 70.8008 63.2342 70.9051 63.8133L69.9658 63.9652C69.871 63.5759 69.7097 63.2911 69.482 63.0918C69.2543 62.9019 68.9791 62.7975 68.6565 62.7975C68.1632 62.7975 67.7742 62.9684 67.4611 63.3196C67.148 63.6709 66.9962 64.231 66.9962 64.9905C66.9962 65.7595 67.1385 66.3196 67.4421 66.6709C67.7362 67.0222 68.1157 67.193 68.5996 67.193C68.9886 67.193 69.3017 67.0886 69.5579 66.8418C69.8046 66.6044 69.9658 66.2437 70.0417 65.7595Z" fill="white"/>
<path d="M76 62H81V62.8515H79.0244V68H77.9756V62.8515H76V62Z" fill="white"/>
<path d="M85.4865 69.8779L85.3874 68.9765C85.5856 69.0329 85.7658 69.0704 85.9099 69.0704C86.1081 69.0704 86.2703 69.0235 86.4054 68.9577C86.5225 68.892 86.6306 68.7887 86.7117 68.6573C86.7748 68.5634 86.8559 68.3192 86.991 67.9437C87.009 67.8873 87.036 67.8122 87.0631 67.6995L85 62.0094H86L87.1441 65.3052C87.2883 65.7277 87.4144 66.1502 87.5315 66.6197C87.6306 66.1784 87.7658 65.7371 87.9099 65.3146L89.0811 62H90L87.9279 67.784C87.7117 68.4038 87.5315 68.8451 87.4054 69.0704C87.2432 69.3897 87.0541 69.6244 86.8378 69.7746C86.6306 69.9155 86.3694 70 86.0811 70C85.9009 70 85.7117 69.9531 85.4865 69.8779Z" fill="white"/>
<path fill-rule="evenodd" clip-rule="evenodd" d="M99.3777 62H95.4675C95.4954 64.574 95.1796 66.3655 94.4923 67.3642H94V70H94.7802V68.2394H99.2012V70H100V67.3642H99.3777V62ZM95.4118 67.3745C95.904 66.4067 96.1827 64.9035 96.2663 62.8855H98.4303V67.3745H95.4118Z" fill="white"/>
<path fill-rule="evenodd" clip-rule="evenodd" d="M117 67.9901V62H114.369C113.716 62 113.213 62.168 112.868 62.4843C112.522 62.8105 112.354 63.2257 112.354 63.7496C112.354 64.1944 112.485 64.5799 112.756 64.916C113.017 65.2619 113.427 65.4695 113.968 65.5486C113.651 65.6178 113.343 65.8946 113.026 66.3789L112 68H113.185L114.024 66.6853C114.341 66.1911 114.584 65.8847 114.743 65.7957C114.91 65.7068 115.153 65.6573 115.498 65.6573H116.049V67.9901H117ZM114.677 62.8501H116.039V64.827H114.976C114.36 64.827 113.94 64.7381 113.688 64.5799C113.437 64.402 113.325 64.1351 113.325 63.7891C113.325 63.5321 113.409 63.3245 113.576 63.1269C113.744 62.9489 114.108 62.8501 114.677 62.8501Z" fill="white"/>
<path fill-rule="evenodd" clip-rule="evenodd" d="M107 61.1388H106V60H107V61.1388ZM107 68H106V62.201H107V68Z" fill="white"/>
</svg>
