<svg width="60" height="60" viewBox="0 0 60 60" fill="none" xmlns="http://www.w3.org/2000/svg">
<g id="noun_setting_2449262">
<path id="Shape" fill-rule="evenodd" clip-rule="evenodd" d="M34.6647 0.577911C34.8157 0.422153 35.0252 0.33711 35.242 0.343609L35.2419 0.343834C35.2677 0.344552 35.2935 0.346564 35.3191 0.349862C35.3356 0.352139 35.3521 0.354954 35.3685 0.358302C39.25 1.12608 42.9414 2.65201 46.2315 4.84929C46.415 4.97197 46.5372 5.16738 46.5672 5.3861C46.5971 5.60483 46.532 5.82591 46.3882 5.99343C45.616 6.8938 45.1927 8.04201 45.1959 9.22812V9.22932C45.2068 11.9665 47.416 14.1622 50.1534 14.1567C51.3343 14.152 52.474 13.7256 53.3676 12.9535C53.5347 12.8089 53.7557 12.7429 53.9748 12.7722C54.1938 12.8015 54.3897 12.9232 54.513 13.1066C56.7254 16.4048 58.2626 20.1097 59.0353 24.0054C59.0818 24.2416 59.0154 24.486 58.8558 24.6662C58.6962 24.8464 58.4616 24.9418 58.2215 24.9241C58.1254 24.917 58.0284 24.9135 57.9321 24.9121C55.195 24.9279 53.0038 27.1405 53.0144 29.878C53.0246 32.6154 55.2322 34.8103 57.9695 34.8054H57.9707C58.0525 34.8045 58.1337 34.802 58.2154 34.797C58.4544 34.7823 58.6866 34.8794 58.8441 35.0597C59.0016 35.2401 59.0664 35.4833 59.0196 35.7181C58.255 39.5484 56.7512 43.1931 54.5925 46.4484C54.4686 46.6349 54.2698 46.7585 54.0476 46.787C53.8255 46.8154 53.602 46.746 53.4351 46.5967C52.523 45.7791 51.3396 45.3288 50.1147 45.3331C47.378 45.3491 45.1859 47.561 45.1957 50.298C45.2028 51.5169 45.6596 52.69 46.4785 53.5929C46.6287 53.7587 46.6995 53.9815 46.6727 54.2036C46.6458 54.4256 46.524 54.6251 46.3387 54.7504C43.0214 56.9866 39.2902 58.539 35.3652 59.3149C35.1294 59.3612 34.8855 59.2951 34.7054 59.1361C34.5253 58.977 34.4296 58.7431 34.4465 58.5034C34.4505 58.4469 34.4529 58.3901 34.4549 58.3335V58.325C34.4346 55.5877 32.2178 53.3996 29.4805 53.4145C26.7435 53.4298 24.5523 55.6413 24.5615 58.378C24.5626 58.4156 24.5643 58.4538 24.5663 58.4914C24.5787 58.7294 24.4805 58.9597 24.3002 59.1156C24.1199 59.2714 23.8777 59.3351 23.644 59.2883C19.8206 58.5206 16.1841 57.0167 12.9354 54.86C12.7451 54.7339 12.6203 54.5301 12.5947 54.3032C12.5692 54.0764 12.6453 53.8498 12.8028 53.6845C13.6774 52.7666 14.1664 51.5488 14.1687 50.281V50.2436C14.1485 47.5063 11.9329 45.3182 9.19554 45.3331C7.92523 45.3403 6.70702 45.836 5.79202 46.7171C5.6277 46.8753 5.40183 46.9527 5.17504 46.9285C4.94826 46.9043 4.74379 46.781 4.61653 46.5918C2.40362 43.301 0.863007 39.6054 0.0845498 35.7171C0.0373069 35.4809 0.103005 35.2363 0.262183 35.0556C0.42136 34.8749 0.655768 34.7789 0.89597 34.796C0.956531 34.8003 1.01734 34.8035 1.07802 34.8056C3.8153 34.8003 6.01479 32.5974 6.01506 29.8601V29.8215C5.99481 27.0842 3.77919 24.8973 1.04185 24.9122C0.989574 24.9138 0.937303 24.9162 0.885112 24.9194C0.645933 24.9345 0.413315 24.8376 0.255568 24.6572C0.0978209 24.4768 0.0328524 24.2333 0.0797411 23.9983C0.860605 20.0841 2.41326 16.3647 4.64665 13.057C4.771 12.8727 4.96876 12.7511 5.18927 12.7231C5.40979 12.6952 5.63164 12.7637 5.79801 12.9111C6.70375 13.714 7.87178 14.1572 9.08215 14.1565C11.8189 14.1505 14.0189 11.9467 14.0192 9.20979V9.17362C14.008 7.98973 13.5723 6.84967 12.7918 5.95942C12.6451 5.79209 12.5778 5.56958 12.6072 5.349C12.6365 5.12842 12.7596 4.93124 12.945 4.80806C16.1906 2.64856 19.825 1.14084 23.6462 0.368926C23.881 0.321755 24.1243 0.38624 24.3049 0.543473C24.4855 0.700706 24.5829 0.932869 24.5685 1.17189C24.5655 1.22026 24.5643 1.2689 24.5631 1.3174L24.5624 1.34188C24.5749 4.07731 26.7804 6.27164 29.5164 6.26688C32.2542 6.26164 34.4551 4.05682 34.4547 1.31898V1.3021C34.4531 1.25544 34.4515 1.20886 34.4486 1.16225C34.4353 0.945761 34.5138 0.73367 34.6647 0.577911ZM44.7425 5.79546C42.0035 4.06453 38.9977 2.82349 35.8388 2.10503V2.10458C35.4339 5.28983 32.8126 7.80328 29.5202 7.80964C26.2246 7.81538 23.5899 5.30662 23.1777 2.11785C20.0801 2.83606 17.1325 4.05692 14.4406 5.75044C15.102 6.77606 15.5514 7.92575 15.5631 9.15878V9.16601V9.20941C15.5631 12.7798 12.6555 15.6926 9.08531 15.6995H9.0841C7.817 15.7003 6.63416 15.2403 5.58417 14.5554C3.82404 17.3103 2.5617 20.3388 1.83102 23.5252C5.01287 23.9182 7.53459 26.5221 7.55898 29.8103V29.8164V29.8598C7.55867 33.1625 5.03608 35.7967 1.83707 36.1943C2.56268 39.346 3.8096 42.3422 5.54318 45.0727C6.62071 44.3132 7.85281 43.7975 9.18657 43.79H9.18778C12.7578 43.7708 15.686 46.6629 15.7125 50.2332V50.238V50.2814V50.2826C15.7104 51.6139 15.2027 52.8477 14.4502 53.9272C17.143 55.6145 20.0892 56.8315 23.186 57.5441C23.6052 54.3852 26.2 51.8899 29.4724 51.8716C32.7768 51.8536 35.4277 54.3662 35.8403 57.5658C39.0343 56.8393 42.0701 55.5782 44.8329 53.8175C44.1335 52.7681 43.66 51.5828 43.6526 50.3079V50.3055C43.639 46.7338 46.5372 43.8091 50.1088 43.7901H50.11C51.3925 43.7856 52.5887 44.2538 53.6485 44.9511C55.3374 42.2562 56.5537 39.3057 57.2666 36.2067C54.0421 35.844 51.4842 33.2041 51.4711 29.8844C51.4582 26.543 54.0258 23.8635 57.2774 23.5042C56.5529 20.3434 55.3081 17.3361 53.57 14.598C52.5411 15.2528 51.3891 15.6954 50.1569 15.7H50.1557C46.5849 15.7068 43.666 12.8048 43.6526 9.23395V9.23274C43.6489 7.99311 44.0873 6.83274 44.7425 5.79546ZM29.4863 17.0754C22.4567 17.1145 16.7696 22.8545 16.7956 29.884C16.8216 36.9137 22.5505 42.6106 29.5801 42.5976C36.6098 42.5847 42.319 36.8656 42.319 29.8359C42.3189 29.8242 42.3185 29.8126 42.3178 29.8009C42.3186 29.7812 42.3186 29.7615 42.3178 29.7419C42.2657 22.7122 36.5158 17.0363 29.4863 17.0752L29.4863 17.0754ZM40.7744 29.7526C40.7287 23.5561 35.691 18.5841 29.4947 18.6186L29.4941 18.6191C23.2977 18.6536 18.3157 23.682 18.3385 29.8783C18.3614 36.0746 23.3811 41.0658 29.5774 41.0543C35.7743 41.0425 40.7756 36.0327 40.7756 29.8357C40.7757 29.8229 40.7761 29.81 40.7768 29.7972C40.7755 29.7823 40.7747 29.7674 40.7744 29.7526Z" fill="black"/>
</g>
</svg>
